<svg aria-hidden="true" style="position: absolute; width: 0; height: 0; overflow: hidden;" version="1.1" xmlns="http://www.w3.org/2000/svg" xmlns:xlink="http://www.w3.org/1999/xlink">
<defs>
<symbol id="icon-apachespark" viewBox="0 0 32 32">
<path fill="#e25a1c" style="fill: var(--color1, #e25a1c)" d="M14.416 0c-0.567 0.017-1.127 0.287-1.595 0.807-0.248 0.28-0.466 0.596-0.645 0.936l-0.013 0.026c-0.473 0.889-0.567 1.887-0.741 2.857 0.362-2.708 0.024-0.86-0.307 0.99l-0.661 4.459c-0.036 0.213-0.128 0.303-0.325 0.364-2.356 0.741-4.716 1.48-7.063 2.245-0.516 0.167-1.031 0.385-1.485 0.675-1.389 0.887-1.595 2.337-0.553 3.613 0.461 0.563 1.053 0.953 1.712 1.248 1.467 0.653 2.936 1.301 4.4 1.96 0.025 0.013 0.048 0.017 0.071 0.025h-0.005l1.741 0.713c0 0.031 0.003 0.060 0 0.097-0.267 2.707-0.52 5.417-0.773 8.127-0.053 0.559-0.016 1.108 0.179 1.64 0.423 1.16 1.42 1.531 2.508 0.935 0.496-0.272 0.888-0.663 1.249-1.091 1.829-2.164 3.661-4.325 5.484-6.496 0.148-0.177 0.273-0.2 0.484-0.131 0.465 0.156 0.929 0.308 1.393 0.463h0.001c0.027 0.016 0.060 0.027 0.097 0.040l0.189 0.056c1.664 0.555 3.573 1.033 5.239 1.587 0.533 0.176 0.829 0.219 1.393 0.131 0.415-0.064 0.789-0.083 1.104-0.315 0.803-0.44 1.327-1.276 1.317-2.243-0.007-0.569-0.205-1.084-0.467-1.581-1.093-2.075-2.183-4.151-3.281-6.221-0.104-0.197-0.101-0.324 0.049-0.5 1.841-2.153 3.675-4.315 5.511-6.473 0.363-0.427 0.684-0.877 0.871-1.411 0.411-1.171-0.12-2.093-1.333-2.321-0.187-0.033-0.402-0.052-0.622-0.052-0.365 0-0.718 0.053-1.051 0.151l0.026-0.007c-2.632 0.695-5.263 1.388-7.891 2.093-0.233 0.063-0.347 0.020-0.473-0.192-2.242-3.88-3.31-5.628-4.389-7.369l1.161 2.012c-0.258-0.428-0.546-0.799-0.871-1.133l0.001 0.001c-0.495-0.493-1.069-0.732-1.637-0.716zM14.645 4.937c0.105 0.072 0.19 0.167 0.25 0.277l0.002 0.004c1.16 1.928 2.323 3.853 3.479 5.784 0.093 0.157 0.18 0.213 0.369 0.161 2.033-0.547 4.069-1.084 6.105-1.623 0.489-0.131 0.98-0.257 1.471-0.385-0.019 0.104-0.067 0.195-0.134 0.267l0-0c-1.679 1.973-3.355 3.949-5.039 5.917-0.147 0.173-0.16 0.293-0.053 0.493 1.249 2.404 2.357 4.412 3.331 6.347l-4.928-1.359c-0.717-0.24-1.436-0.477-2.153-0.719-0.217-0.073-0.333-0.040-0.48 0.133-1.664 1.984-3.339 3.96-5.012 5.939-0.061 0.079-0.142 0.14-0.236 0.175l-0.004 0.001c0.047-0.504 0.091-1.009 0.139-1.515 0.199-2.096 0.396-4.192 0.601-6.288-0.040-0.424 0.156-0.54-0.429-0.727-1.991-0.791-4.461-1.761-6.421-2.54 0.088-0.081 0.196-0.143 0.314-0.177l0.006-0.001c2.396-0.76 4.793-1.52 7.192-2.273 0.169-0.053 0.265-0.123 0.281-0.311 0.017-0.197 0.067-0.392 0.101-0.588 0.321-1.817 0.644-3.635 0.968-5.451 0.091-0.515 0.187-1.028 0.28-1.543z"></path>
</symbol>
<symbol id="icon-clockify" viewBox="0 0 32 32">
<path fill="#03a9f4" style="fill: var(--color2, #03a9f4)" d="M19.972 10.997l7.251-7.352 2.076 2.103-7.251 7.352zM17.035 18.511c-0.713-0.002-1.357-0.296-1.818-0.769l-0.001-0.001c-0.463-0.477-0.749-1.128-0.749-1.846 0-0 0-0 0-0v0c0-1.443 1.149-2.613 2.567-2.613 1.419 0 2.571 1.171 2.571 2.613 0 0.688-0.268 1.349-0.751 1.847-0.462 0.473-1.106 0.767-1.818 0.769h-0zM29.331 26.104l-2.075 2.105-7.251-7.353 2.077-2.103zM17.112 27.204c1.49-0.001 2.909-0.302 4.2-0.847l-0.071 0.027 3.541 3.593c-2.203 1.272-4.845 2.023-7.662 2.023-0.003 0-0.006 0-0.009 0h0c-8.715 0-15.779-7.164-15.779-16s7.065-16 15.779-16c2.757 0 5.349 0.72 7.604 1.981l-3.481 3.533c-1.218-0.516-2.635-0.817-4.122-0.817h-0c-6.103 0-11.049 5.040-11.049 11.253 0 6.215 4.947 11.253 11.049 11.253z"></path>
</symbol>
<symbol id="icon-discord" viewBox="0 0 32 32">
<path fill="#7289da" style="fill: var(--color3, #7289da)" d="M26.963 0c1.875 0 3.387 1.516 3.476 3.3v28.7l-3.569-3.031-1.96-1.784-2.139-1.864 0.893 2.94h-18.717c-1.869 0-3.387-1.42-3.387-3.301v-21.653c0-1.784 1.52-3.303 3.393-3.303h22zM18.805 7.577h-0.040l-0.269 0.267c2.764 0.8 4.101 2.049 4.101 2.049-1.781-0.891-3.387-1.336-4.992-1.516-1.16-0.18-2.32-0.085-3.3 0h-0.267c-0.627 0-1.96 0.267-3.747 0.98-0.623 0.271-0.98 0.448-0.98 0.448s1.336-1.336 4.28-2.049l-0.18-0.18c0 0-2.229-0.085-4.636 1.693 0 0-2.407 4.192-2.407 9.36 0 0 1.333 2.32 4.991 2.408 0 0 0.533-0.711 1.073-1.336-2.053-0.624-2.853-1.872-2.853-1.872s0.179 0.088 0.447 0.267h0.080c0.040 0 0.059 0.020 0.080 0.040v0.008c0.021 0.021 0.040 0.040 0.080 0.040 0.44 0.181 0.88 0.36 1.24 0.533 0.621 0.269 1.42 0.537 2.4 0.715 1.24 0.18 2.661 0.267 4.28 0 0.8-0.18 1.6-0.356 2.4-0.713 0.52-0.267 1.16-0.533 1.863-0.983 0 0-0.8 1.248-2.94 1.872 0.44 0.621 1.060 1.333 1.060 1.333 3.659-0.080 5.080-2.4 5.16-2.301 0-5.16-2.42-9.36-2.42-9.36-2.18-1.619-4.22-1.68-4.58-1.68zM19.029 13.461c0.937 0 1.693 0.8 1.693 1.78 0 0.987-0.76 1.787-1.693 1.787s-1.693-0.8-1.693-1.779c0.003-0.987 0.764-1.784 1.693-1.788zM12.972 13.461c0.933 0 1.688 0.8 1.688 1.78 0 0.987-0.76 1.787-1.693 1.787s-1.693-0.8-1.693-1.779c0-0.987 0.76-1.784 1.699-1.788z"></path>
</symbol>
<symbol id="icon-dynatrace" viewBox="0 0 32 32">
<path fill="#1496ff" style="fill: var(--color4, #1496ff)" d="M12.497 0c-0.413 0.008-1.24 0.12-2.028 0.872-1.163 1.099-6.965 6.608-9.296 8.821-1.053 1.005-0.96 2.127-0.96 2.219v0.503c0.089-0.389 0.249-0.665 0.569-1.1 0.661-0.821 1.733-1.051 2.169-1.096 0 0 0.001 0 0.001 0s0.001 0 0.001 0h-0c2.507-0.362 5.513-0.625 8.56-0.728l0.143-0.004c5.78-0.183 9.596 0.3 9.596 0.3l8.112-7.724c0 0-4.251-0.8-9.093-1.369-1.955-0.26-4.547-0.504-7.16-0.667l-0.357-0.018c-0.028 0-0.12-0.011-0.257-0.008zM30.577 3.344l-8.088 7.72c0 0 0.296 3.84-0.183 9.597-0.252 3.267-0.779 6.488-1.167 8.659-0.069 0.435-0.341 1.485-1.233 2.125-0.387 0.264-0.655 0.393-0.997 0.484 2.061-0.68 1.455-9.396 1.455-9.396-5.78 0.183-9.619-0.296-9.619-0.296l-8.112 7.723c0 0 4.296 0.845 9.14 1.393 2.741 0.32 6.444 0.572 6.969 0.617 0.031 0 0.060-0.009 0.091-0.016-0.017 0.004-0.029 0.012-0.047 0.016 0.184 0 0.345 0.020 0.505 0.020 0.113 0 1.233 0.14 2.284-0.864 2.331-2.217 8.111-7.747 9.253-8.844 1.051-1.005 0.96-2.125 0.96-2.24-0.006-2.664-0.106-5.293-0.297-7.897l0.021 0.358c-0.32-4.867-0.935-9.161-0.936-9.16zM5.141 11.073c-2.308 0.003-4.677 0.277-4.928 1.361 0.023 1.621 0.067 4.183 0.273 7.040 0.32 4.867 0.937 9.181 0.937 9.181l8.109-7.72c-0.023 0.023-0.319-3.84 0.161-9.597h-0.001c0 0-2.245-0.269-4.552-0.265z"></path>
</symbol>
<symbol id="icon-googleanalytics" viewBox="0 0 32 32">
<path fill="#ffc107" style="fill: var(--color5, #ffc107)" d="M29.432 32h-26.905c-1.391 0-2.527-1.137-2.527-2.528v-5.892c0-1.391 1.136-2.528 2.527-2.528h7.58v-8.42c0-1.389 1.136-2.525 2.525-2.525h8.441v-7.54c0-1.407 1.159-2.567 2.565-2.567h5.795c1.407 0 2.567 1.16 2.567 2.568v26.864c0 1.408-1.16 2.568-2.568 2.568z"></path>
</symbol>
<symbol id="icon-homeassistant" viewBox="0 0 32 32">
<path fill="#41bdf5" style="fill: var(--color6, #41bdf5)" d="M15.99 1.859c-0.26 0.002-0.495 0.109-0.664 0.281l-0 0-15.109 15.323c-0.134 0.136-0.216 0.322-0.216 0.527 0 0 0 0.001 0 0.001v-0c0 0.417 0.338 0.755 0.755 0.755h2.805v10.766c0 0.347 0.281 0.628 0.628 0.628h10.596v-4.911l-4.068-4.073c-0.373 0.163-0.807 0.258-1.263 0.258h-0c-1.784 0-3.229-1.449-3.229-3.234s1.445-3.232 3.229-3.232c1.784 0 3.229 1.447 3.229 3.232 0 0.448-0.091 0.875-0.255 1.263l2.357 2.357v-7.167c-1.184-0.479-2.021-1.641-2.021-2.997 0-1.785 1.448-3.234 3.232-3.234s3.229 1.449 3.229 3.234c0 1.357-0.835 2.518-2.018 2.997v7.167l2.354-2.357c-0.161-0.371-0.255-0.804-0.255-1.258 0-0.002 0-0.004 0-0.005v0c0-1.785 1.448-3.232 3.232-3.232s3.229 1.447 3.229 3.232-1.445 3.234-3.229 3.234c-0.456-0-0.89-0.095-1.284-0.266l0.021 0.008-4.068 4.073v4.911h10.596c0 0 0 0 0.001 0 0.346 0 0.627-0.281 0.627-0.627 0-0 0-0 0-0.001v0-10.766h2.815c0.206-0 0.392-0.083 0.529-0.216l-0 0c0.298-0.291 0.302-0.77 0.010-1.068l-3.354-3.43v-5.406c0-0.347-0.281-0.63-0.628-0.63h-2.62c-0.347 0-0.628 0.283-0.628 0.63v1.471l-7.888-7.961c-0.171-0.172-0.407-0.279-0.668-0.279-0.003 0-0.006 0-0.009 0h0zM15.995 10.341c-0.714 0-1.292 0.58-1.292 1.294s0.578 1.292 1.292 1.292c0 0 0 0 0.001 0 0.713 0 1.291-0.578 1.291-1.291 0-0 0-0 0-0.001v0c0-0.714-0.578-1.294-1.292-1.294zM9.453 16.888c-0 0-0 0-0.001 0-0.713 0-1.291 0.578-1.291 1.291 0 0 0 0 0 0.001v-0c0 0.714 0.578 1.294 1.292 1.294s1.292-0.58 1.292-1.294c0-0 0-0 0-0.001 0-0.713-0.578-1.291-1.291-1.291-0 0-0 0-0.001 0h0zM22.536 16.888c-0.713 0-1.294 0.578-1.294 1.292s0.581 1.294 1.294 1.294c0.714 0 1.292-0.58 1.292-1.294 0-0 0-0 0-0.001 0-0.713-0.578-1.291-1.291-1.291-0 0-0 0-0.001 0h0z"></path>
</symbol>
<symbol id="icon-instagram" viewBox="0 0 32 32">
<path fill="#e4405f" style="fill: var(--color7, #e4405f)" d="M16 0c-4.347 0-4.889 0.020-6.596 0.096-1.704 0.080-2.864 0.348-3.884 0.744-1.052 0.408-1.945 0.956-2.835 1.845s-1.439 1.781-1.845 2.835c-0.396 1.020-0.665 2.18-0.744 3.884-0.080 1.707-0.096 2.249-0.096 6.596s0.020 4.889 0.096 6.596c0.080 1.703 0.348 2.864 0.744 3.884 0.408 1.051 0.956 1.945 1.845 2.835 0.889 0.888 1.781 1.439 2.835 1.845 1.021 0.395 2.181 0.665 3.884 0.744 1.707 0.080 2.249 0.096 6.596 0.096s4.889-0.020 6.596-0.096c1.703-0.080 2.864-0.349 3.884-0.744 1.051-0.408 1.945-0.957 2.835-1.845 0.888-0.889 1.439-1.78 1.845-2.835 0.395-1.020 0.665-2.181 0.744-3.884 0.080-1.707 0.096-2.249 0.096-6.596s-0.020-4.889-0.096-6.596c-0.080-1.703-0.349-2.865-0.744-3.884-0.408-1.052-0.957-1.945-1.845-2.835-0.889-0.889-1.78-1.439-2.835-1.845-1.020-0.396-2.181-0.665-3.884-0.744-1.707-0.080-2.249-0.096-6.596-0.096zM16 2.88c4.271 0 4.78 0.021 6.467 0.095 1.56 0.073 2.407 0.332 2.969 0.553 0.749 0.289 1.28 0.636 1.843 1.195 0.559 0.56 0.905 1.092 1.195 1.841 0.219 0.563 0.48 1.409 0.551 2.969 0.076 1.688 0.093 2.195 0.093 6.467s-0.020 4.78-0.099 6.467c-0.081 1.56-0.341 2.407-0.561 2.969-0.299 0.749-0.639 1.28-1.199 1.843-0.559 0.559-1.099 0.905-1.84 1.195-0.56 0.219-1.42 0.48-2.98 0.551-1.699 0.076-2.199 0.093-6.479 0.093-4.281 0-4.781-0.020-6.479-0.099-1.561-0.081-2.421-0.341-2.981-0.561-0.759-0.299-1.28-0.639-1.839-1.199-0.561-0.559-0.92-1.099-1.2-1.84-0.22-0.56-0.479-1.42-0.56-2.98-0.060-1.68-0.081-2.199-0.081-6.459 0-4.261 0.021-4.781 0.081-6.481 0.081-1.56 0.34-2.419 0.56-2.979 0.28-0.76 0.639-1.28 1.2-1.841 0.559-0.559 1.080-0.919 1.839-1.197 0.56-0.221 1.401-0.481 2.961-0.561 1.7-0.060 2.2-0.080 6.479-0.080zM16 7.784c-4.54 0-8.216 3.68-8.216 8.216 0 4.54 3.68 8.216 8.216 8.216 4.54 0 8.216-3.68 8.216-8.216 0-4.54-3.68-8.216-8.216-8.216zM16 21.333c-2.947 0-5.333-2.387-5.333-5.333s2.387-5.333 5.333-5.333 5.333 2.387 5.333 5.333-2.387 5.333-5.333 5.333zM26.461 7.46c0 1.060-0.861 1.92-1.92 1.92-1.060 0-1.92-0.861-1.92-1.92s0.861-1.919 1.92-1.919c1.057-0.001 1.92 0.86 1.92 1.919z"></path>
</symbol>
<symbol id="icon-messenger" viewBox="0 0 32 32">
<path fill="#00b2ff" style="fill: var(--color8, #00b2ff)" d="M0 15.52c0-8.92 6.987-15.52 16-15.52s16 6.6 16 15.52-6.987 15.52-16 15.52c-1.613 0-3.173-0.213-4.627-0.613-0.1-0.028-0.214-0.044-0.333-0.044-0.188 0-0.367 0.041-0.529 0.114l0.008-0.003-3.187 1.4c-0.153 0.070-0.332 0.111-0.521 0.111-0.694 0-1.259-0.553-1.279-1.242l-0-0.002-0.093-2.853c-0.016-0.361-0.177-0.681-0.426-0.906l-0.001-0.001c-3.085-2.791-5.015-6.808-5.015-11.277 0-0.071 0.001-0.143 0.001-0.214l-0 0.011zM11.093 12.6l-4.693 7.467c-0.467 0.707 0.427 1.52 1.093 1l5.053-3.827c0.347-0.267 0.8-0.267 1.16 0l3.733 2.8c1.12 0.84 2.72 0.533 3.467-0.64l4.693-7.467c0.467-0.707-0.427-1.507-1.093-1l-5.053 3.827c-0.333 0.267-0.8 0.267-1.147 0l-3.733-2.8c-0.397-0.303-0.901-0.485-1.447-0.485-0.853 0-1.602 0.445-2.028 1.115l-0.006 0.010z"></path>
</symbol>
<symbol id="icon-monogram" viewBox="0 0 32 32">
<path fill="#fdb22a" style="fill: var(--color9, #fdb22a)" d="M30.877 0v31.337c0 0.601-0.711 0.891-1.107 0.451l-28.648-31.788zM14.705 17.947l-12.476 13.841c-0.396 0.44-1.107 0.148-1.107-0.451v-31.337z"></path>
</symbol>
<symbol id="icon-nextdoor" viewBox="0 0 32 32">
<path fill="#00b246" style="fill: var(--color10, #00b246)" d="M31.991 13.088l-15.991-9.791-5.493 3.365v-3.365h-5.008v6.425l-5.493 3.365 2.615 4.269 2.88-1.753v13.101h20.999v-13.101l2.879 1.753 2.613-4.269z"></path>
</symbol>
<symbol id="icon-ripple" viewBox="0 0 32 32">
<path fill="#0085c0" style="fill: var(--color11, #0085c0)" d="M27.4 19.533c-1.128-0.648-2.407-0.843-3.669-0.888-1.053-0.031-2.632-0.721-2.632-2.647 0-1.429 1.157-2.587 2.647-2.647 1.263-0.045 2.541-0.24 3.669-0.888 2.012-1.179 3.343-3.33 3.343-5.793 0-1.228-0.331-2.378-0.908-3.367l0.017 0.032c-1.187-2.009-3.341-3.335-5.805-3.335-1.235 0-2.392 0.333-3.387 0.915l0.032-0.017c-2.010 1.171-3.339 3.316-3.339 5.771 0 0.007 0 0.014 0 0.021v-0.001c0 1.293 0.467 2.481 1.053 3.595 0.496 0.932 0.737 2.661-0.947 3.64-1.264 0.72-2.843 0.269-3.625-0.993-0.661-1.068-1.459-2.060-2.587-2.707-3.203-1.851-7.293-0.752-9.129 2.436-0.559 0.957-0.89 2.107-0.89 3.334 0 2.462 1.33 4.614 3.311 5.776l0.032 0.017c0.958 0.56 2.11 0.891 3.339 0.891s2.38-0.331 3.37-0.908l-0.032 0.017c1.128-0.647 1.925-1.64 2.587-2.707 0.541-0.872 1.911-1.985 3.624-0.992 1.264 0.721 1.655 2.316 0.948 3.64-0.587 1.097-1.053 2.3-1.053 3.593 0.002 3.687 2.989 6.676 6.676 6.679h0c3.687-0.002 6.675-2.99 6.677-6.677v-0c0-0.011 0-0.023 0-0.036 0-2.446-1.322-4.584-3.291-5.737l-0.031-0.017z"></path>
</symbol>
<symbol id="icon-sonarcloud" viewBox="0 0 32 32">
<path fill="#f3702a" style="fill: var(--color12, #f3702a)" d="M29.875 14.533c-1.144-1.445-2.674-2.537-4.436-3.125l-0.067-0.019v-0.113c0-5.38-4.208-9.765-9.396-9.765-5.191 0-9.4 4.376-9.4 9.767v0.133c-3.801 1.245-6.576 4.947-6.576 9.312 0 5.38 4.212 9.767 9.4 9.767 2.591-0.006 4.93-1.081 6.6-2.808l0.002-0.003c1.669 1.73 4.006 2.806 6.595 2.811h0.001c5.179 0 9.401-4.376 9.401-9.767-0.002-2.343-0.801-4.499-2.142-6.211l0.017 0.022zM22.6 28.019c-3.871 0-7.023-3.275-7.023-7.299 0-0.006 0-0.012 0-0.019 0-0.661-0.528-1.198-1.185-1.213l-0.001-0c-0.659 0.010-1.19 0.547-1.19 1.208 0 0.009 0 0.018 0 0.027l-0-0.001c0 1.824 0.489 3.535 1.325 4.997-1.262 1.417-3.090 2.306-5.126 2.311h-0.001c-3.872 0-7.027-3.276-7.027-7.299 0-4.021 3.155-7.297 7.027-7.297 0.84 0 1.655 0.156 2.436 0.447 0.009 0 0.017 0.009 0.027 0.009 0.271 0.095 0.652 0.28 0.771 0.383 0.203 0.185 0.473 0.298 0.77 0.298 0.361 0 0.684-0.168 0.893-0.429l0.002-0.002c0.179-0.215 0.287-0.495 0.287-0.799 0-0.37-0.16-0.703-0.415-0.933l-0.001-0.001c-0.52-0.456-1.327-0.767-1.525-0.84-0.957-0.374-2.064-0.591-3.222-0.591-0.004 0-0.008 0-0.011 0h0.001c-0.151 0-0.3 0-0.451 0.009 0.16-3.888 3.244-6.996 7.027-6.996 3.871 0 7.023 3.275 7.023 7.299 0 0.007 0 0.015 0 0.023 0 2.414-1.151 4.558-2.935 5.914l-0.018 0.013c-0.303 0.233-0.496 0.596-0.496 1.004 0 0.264 0.081 0.509 0.219 0.711l-0.003-0.004c0.228 0.333 0.6 0.52 0.969 0.52 0.259 0 0.499-0.086 0.691-0.231l-0.003 0.002c1.74-1.314 3.017-3.159 3.596-5.291l0.016-0.069c2.713 1.047 4.599 3.772 4.599 6.852-0.009 4.013-3.161 7.288-7.044 7.288z"></path>
</symbol>
<symbol id="icon-soundcloud" viewBox="0 0 32 32">
<path fill="#f30" style="fill: var(--color13, #f30)" d="M1.567 16.3c-0.068 0-0.125 0.061-0.135 0.133l-0.311 2.872 0.311 2.807c0.009 0.077 0.067 0.131 0.135 0.131 0.067 0 0.12-0.053 0.132-0.131l0.34-2.807-0.36-2.872c0-0.076-0.060-0.133-0.12-0.133zM0.36 17.404c-0.080 0-0.121 0.049-0.139 0.125l-0.221 1.776 0.22 1.744c0 0.073 0.060 0.125 0.12 0.125s0.119-0.060 0.139-0.139l0.28-1.759-0.28-1.779c0-0.081-0.059-0.12-0.12-0.12zM2.799 15.74c-0.081 0-0.16 0.060-0.16 0.139l-0.28 3.417 0.3 3.277c0 0.080 0.060 0.16 0.159 0.16 0.081 0 0.14-0.081 0.161-0.16l0.339-3.299-0.339-3.397c-0.021-0.080-0.081-0.16-0.161-0.16zM4.077 15.599c-0.1 0-0.18 0.080-0.2 0.18l-0.257 3.52 0.28 3.392c0.021 0.103 0.1 0.184 0.199 0.184 0.1 0 0.18-0.081 0.2-0.2l0.32-3.376-0.32-3.497c0-0.1-0.080-0.18-0.18-0.18zM5.617 16.079c-0.007-0.12-0.1-0.199-0.212-0.199-0.12 0-0.211 0.080-0.219 0.199l-0.289 3.24 0.267 3.417c0 0.12 0.1 0.209 0.212 0.209 0.099 0 0.197-0.091 0.197-0.211l0.303-3.417-0.303-3.259zM6.696 13.8c-0.135 0-0.24 0.12-0.24 0.241l-0.28 5.276 0.249 3.417c0 0.12 0.107 0.219 0.24 0.219 0.125 0 0.232-0.12 0.24-0.24l0.279-3.417-0.279-5.296c-0.011-0.139-0.117-0.24-0.24-0.24zM7.944 12.541c-0.14 0-0.26 0.12-0.271 0.259l-0.24 6.496 0.22 3.397c0 0.16 0.12 0.279 0.26 0.279 0.139 0 0.259-0.119 0.28-0.279l0.257-3.397-0.256-6.475c-0.021-0.16-0.14-0.28-0.28-0.28zM9.233 11.943c-0.161 0-0.281 0.119-0.3 0.279l-0.22 7.033 0.22 3.36c0.019 0.159 0.139 0.3 0.3 0.3 0.159 0 0.3-0.14 0.3-0.3l0.26-3.36-0.261-7.033c0-0.16-0.14-0.3-0.3-0.3zM10.892 11.981c0-0.18-0.14-0.32-0.32-0.32-0.159 0-0.32 0.14-0.32 0.32l-0.199 7.255 0.199 3.337c0.021 0.18 0.161 0.32 0.341 0.32s0.32-0.14 0.32-0.32l0.219-3.337-0.219-7.275zM11.891 11.803c-0.18 0-0.34 0.159-0.34 0.339l-0.2 7.096 0.2 3.297c0 0.2 0.16 0.34 0.34 0.34s0.34-0.16 0.34-0.36l0.2-3.299-0.22-7.076c0-0.197-0.16-0.36-0.361-0.36zM13.189 12.001c-0.219 0-0.379 0.18-0.379 0.38l-0.137 6.857 0.18 3.299c0 0.199 0.159 0.369 0.379 0.369 0.199 0 0.361-0.16 0.379-0.38l0.161-3.257-0.18-6.816c-0.016-0.219-0.18-0.38-0.38-0.38zM14.791 10.813c-0.060-0.039-0.14-0.059-0.22-0.059s-0.159 0.020-0.22 0.059c-0.12 0.072-0.199 0.2-0.199 0.34v0.081l-0.139 8.064 0.153 3.265v0.011c0.011 0.080 0.040 0.18 0.099 0.24 0.077 0.081 0.189 0.139 0.312 0.139 0.107 0 0.211-0.059 0.279-0.12 0.077-0.080 0.121-0.18 0.121-0.3l0.020-0.32 0.156-2.937-0.18-8.115c0-0.139-0.081-0.257-0.18-0.319zM16.132 10.084c-0.060-0.060-0.12-0.081-0.2-0.081-0.099 0-0.199 0.021-0.279 0.081-0.1 0.081-0.159 0.2-0.159 0.32v0.039l-0.183 8.812 0.101 1.62 0.081 1.58c0 0.219 0.197 0.419 0.437 0.419 0.241 0 0.44-0.2 0.44-0.439l0.2-3.219-0.2-8.849c0-0.16-0.099-0.295-0.22-0.369zM28.064 15.033c-0.54 0-1.060 0.115-1.519 0.309-0.32-3.539-3.28-6.315-6.917-6.315-0.879 0-1.74 0.18-2.519 0.479-0.3 0.12-0.36 0.24-0.38 0.479v12.491c0.021 0.24 0.2 0.44 0.44 0.46h10.913c2.159 0.021 3.917-1.717 3.917-3.896s-1.759-3.936-3.917-3.936z"></path>
</symbol>
<symbol id="icon-youtube" viewBox="0 0 32 32">
<path fill="#f00" style="fill: var(--color14, #f00)" d="M31.327 8.273c-0.386-1.353-1.431-2.398-2.756-2.777l-0.028-0.007c-2.493-0.668-12.528-0.668-12.528-0.668s-10.009-0.013-12.528 0.668c-1.353 0.386-2.398 1.431-2.777 2.756l-0.007 0.028c-0.443 2.281-0.696 4.903-0.696 7.585 0 0.054 0 0.109 0 0.163l-0-0.008c-0 0.037-0 0.082-0 0.126 0 2.682 0.253 5.304 0.737 7.845l-0.041-0.26c0.386 1.353 1.431 2.398 2.756 2.777l0.028 0.007c2.491 0.669 12.528 0.669 12.528 0.669s10.008 0 12.528-0.669c1.353-0.386 2.398-1.431 2.777-2.756l0.007-0.028c0.425-2.233 0.668-4.803 0.668-7.429 0-0.099-0-0.198-0.001-0.297l0 0.015c0.001-0.092 0.001-0.201 0.001-0.31 0-2.626-0.243-5.196-0.708-7.687l0.040 0.258zM12.812 20.801v-9.591l8.352 4.803z"></path>
</symbol>
<symbol id="icon-chevron-right" viewBox="0 0 20 20">
<path d="M9.163 4.516c0.418 0.408 4.502 4.695 4.502 4.695 0.223 0.219 0.335 0.504 0.335 0.789s-0.112 0.57-0.335 0.787c0 0-4.084 4.289-4.502 4.695-0.418 0.408-1.17 0.436-1.615 0-0.446-0.434-0.481-1.041 0-1.574l3.747-3.908-3.747-3.908c-0.481-0.533-0.446-1.141 0-1.576s1.197-0.409 1.615 0z"></path>
</symbol>
<symbol id="icon-dots-three-horizontal" viewBox="0 0 20 20">
<path d="M10.001 7.8c-1.215 0-2.201 0.985-2.201 2.2s0.986 2.2 2.201 2.2c1.215 0 2.199-0.985 2.199-2.2s-0.984-2.2-2.199-2.2zM3.001 7.8c-1.215 0-2.201 0.985-2.201 2.2s0.986 2.2 2.201 2.2c1.215 0 2.199-0.986 2.199-2.2s-0.984-2.2-2.199-2.2zM17.001 7.8c-1.215 0-2.201 0.985-2.201 2.2s0.986 2.2 2.201 2.2c1.215 0 2.199-0.985 2.199-2.2s-0.984-2.2-2.199-2.2z"></path>
</symbol>
<symbol id="icon-bell" viewBox="0 0 20 20">
<path d="M14.65 8.512c-2.28-4.907-3.466-6.771-7.191-6.693-1.327 0.027-1.009-0.962-2.021-0.587-1.010 0.375-0.143 0.924-1.177 1.773-2.902 2.383-2.635 4.587-1.289 9.84 0.567 2.213-1.367 2.321-0.602 4.465 0.559 1.564 4.679 2.219 9.025 0.607s7.086-4.814 6.527-6.378c-0.765-2.145-2.311-0.961-3.272-3.027zM10.924 16.595c-3.882 1.44-7.072 0.594-7.207 0.217-0.232-0.65 1.253-2.816 5.691-4.463s6.915-1.036 7.174-0.311c0.153 0.429-1.775 3.116-5.658 4.557zM9.676 13.101c-2.029 0.753-3.439 1.614-4.353 2.389 0.643 0.584 1.847 0.726 3.046 0.281 1.527-0.565 2.466-1.866 2.095-2.904-0.005-0.013-0.011-0.023-0.016-0.036-0.251 0.082-0.508 0.171-0.772 0.27z"></path>
</symbol>
<symbol id="icon-cog" viewBox="0 0 20 20">
<path d="M16.783 10c0-1.049 0.646-1.875 1.617-2.443-0.176-0.584-0.407-1.145-0.692-1.672-1.089 0.285-1.97-0.141-2.711-0.883-0.741-0.74-0.968-1.621-0.683-2.711-0.527-0.285-1.088-0.518-1.672-0.691-0.568 0.97-1.595 1.615-2.642 1.615-1.048 0-2.074-0.645-2.643-1.615-0.585 0.173-1.144 0.406-1.671 0.691 0.285 1.090 0.059 1.971-0.684 2.711-0.74 0.742-1.621 1.168-2.711 0.883-0.285 0.527-0.517 1.088-0.691 1.672 0.97 0.568 1.615 1.394 1.615 2.443 0 1.047-0.645 2.074-1.615 2.643 0.175 0.584 0.406 1.144 0.691 1.672 1.090-0.285 1.971-0.059 2.711 0.682s0.969 1.623 0.684 2.711c0.527 0.285 1.087 0.518 1.672 0.693 0.568-0.973 1.595-1.617 2.643-1.617 1.047 0 2.074 0.645 2.643 1.617 0.584-0.176 1.144-0.408 1.672-0.693-0.285-1.088-0.059-1.969 0.683-2.711 0.741-0.74 1.622-1.166 2.711-0.883 0.285-0.527 0.517-1.086 0.692-1.672-0.973-0.569-1.619-1.395-1.619-2.442zM10 13.652c-2.018 0-3.653-1.635-3.653-3.652 0-2.018 1.636-3.654 3.653-3.654s3.652 1.637 3.652 3.654c0 2.018-1.634 3.652-3.652 3.652z"></path>
</symbol>
<symbol id="icon-direction" viewBox="0 0 20 20">
<path d="M18.060 1.941c-0.586-0.586-1.144-0.033-3.041 0.879-5.075 2.439-13.919 7.396-13.919 7.396l7.599 1.084 1.085 7.599c0 0 4.958-8.843 7.396-13.916 0.912-1.898 1.465-2.456 0.88-3.042zM16.236 3.896l-5.519 10.247-0.561-4.655 6.080-5.592z"></path>
</symbol>
<symbol id="icon-heart-outlined" viewBox="0 0 20 20">
<path d="M17.19 4.156c-1.672-1.535-4.383-1.535-6.055 0l-1.135 1.041-1.136-1.041c-1.672-1.535-4.382-1.535-6.054 0-1.881 1.726-1.881 4.519 0 6.245l7.19 6.599 7.19-6.599c1.88-1.726 1.88-4.52 0-6.245zM16.124 9.375l-6.124 5.715-6.125-5.715c-0.617-0.567-0.856-1.307-0.856-2.094s0.138-1.433 0.756-1.999c0.545-0.501 1.278-0.777 2.063-0.777s1.517 0.476 2.062 0.978l2.1 1.825 2.099-1.826c0.546-0.502 1.278-0.978 2.063-0.978s1.518 0.276 2.063 0.777c0.618 0.566 0.755 1.212 0.755 1.999s-0.238 1.528-0.856 2.095z"></path>
</symbol>
<symbol id="icon-magnifying-glass" viewBox="0 0 20 20">
<path d="M17.545 15.467l-3.779-3.779c0.57-0.935 0.898-2.035 0.898-3.21 0-3.417-2.961-6.377-6.378-6.377s-6.186 2.769-6.186 6.186c0 3.416 2.961 6.377 6.377 6.377 1.137 0 2.2-0.309 3.115-0.844l3.799 3.801c0.372 0.371 0.975 0.371 1.346 0l0.943-0.943c0.371-0.371 0.236-0.84-0.135-1.211zM4.004 8.287c0-2.366 1.917-4.283 4.282-4.283s4.474 2.107 4.474 4.474c0 2.365-1.918 4.283-4.283 4.283s-4.473-2.109-4.473-4.474z"></path>
</symbol>
<symbol id="icon-paper-plane" viewBox="0 0 20 20">
<path d="M18.64 2.634c-0.344 0.121-17.321 6.104-17.656 6.222-0.284 0.1-0.347 0.345-0.010 0.479 0.401 0.161 3.796 1.521 3.796 1.521v0l2.25 0.901c0 0 10.838-7.958 10.984-8.066 0.148-0.108 0.318 0.095 0.211 0.211s-7.871 8.513-7.871 8.513v0.002l-0.452 0.503 0.599 0.322c0 0 4.65 2.504 4.982 2.682 0.291 0.156 0.668 0.027 0.752-0.334 0.099-0.426 2.845-12.261 2.906-12.525 0.079-0.343-0.148-0.552-0.491-0.431zM7 17.162c0 0.246 0.139 0.315 0.331 0.141 0.251-0.229 2.85-2.561 2.85-2.561l-3.181-1.644v4.064z"></path>
</symbol>
<symbol id="icon-compass" viewBox="0 0 32 32">
<path d="M17 32c-0.072 0-0.144-0.008-0.217-0.024-0.458-0.102-0.783-0.507-0.783-0.976v-15h-15c-0.469 0-0.875-0.326-0.976-0.783s0.129-0.925 0.553-1.123l30-14c0.381-0.178 0.833-0.098 1.13 0.199s0.377 0.749 0.199 1.13l-14 30c-0.167 0.358-0.524 0.577-0.906 0.577zM5.508 14h11.492c0.552 0 1 0.448 1 1v11.492l10.931-23.423-23.423 10.931z"></path>
</symbol>
<symbol id="icon-bubble2" viewBox="0 0 32 32">
<path d="M16 6c-1.717 0-3.375 0.271-4.928 0.804-1.46 0.502-2.76 1.211-3.863 2.108-2.069 1.681-3.209 3.843-3.209 6.088 0 1.259 0.35 2.481 1.039 3.63 0.711 1.185 1.781 2.268 3.093 3.133 0.949 0.625 1.587 1.623 1.755 2.747 0.056 0.375 0.091 0.753 0.105 1.129 0.233-0.194 0.461-0.401 0.684-0.624 0.755-0.755 1.774-1.172 2.828-1.172 0.168 0 0.336 0.011 0.505 0.032 0.655 0.083 1.325 0.126 1.99 0.126 1.717 0 3.375-0.271 4.928-0.804 1.46-0.502 2.76-1.211 3.863-2.108 2.069-1.681 3.209-3.843 3.209-6.088s-1.14-4.407-3.209-6.088c-1.104-0.897-2.404-1.606-3.863-2.108-1.553-0.534-3.211-0.804-4.928-0.804zM16 2v0c8.837 0 16 5.82 16 13s-7.163 13-16 13c-0.849 0-1.682-0.054-2.495-0.158-3.437 3.437-7.539 4.053-11.505 4.144v-0.841c2.142-1.049 4-2.961 4-5.145 0-0.305-0.024-0.604-0.068-0.897-3.619-2.383-5.932-6.024-5.932-10.103 0-7.18 7.163-13 16-13z"></path>
</symbol>
<symbol id="icon-bookmark" viewBox="0 0 32 32">
<path d="M6 0v32l10-10 10 10v-32z"></path>
</symbol>
<symbol id="icon-heart" viewBox="0 0 32 32">
<path d="M23.6 2c-3.363 0-6.258 2.736-7.599 5.594-1.342-2.858-4.237-5.594-7.601-5.594-4.637 0-8.4 3.764-8.4 8.401 0 9.433 9.516 11.906 16.001 21.232 6.13-9.268 15.999-12.1 15.999-21.232 0-4.637-3.763-8.401-8.4-8.401z"></path>
</symbol>
<symbol id="icon-instagram1" viewBox="0 0 32 32">
<path d="M16 2.881c4.275 0 4.781 0.019 6.462 0.094 1.563 0.069 2.406 0.331 2.969 0.55 0.744 0.288 1.281 0.638 1.837 1.194 0.563 0.563 0.906 1.094 1.2 1.838 0.219 0.563 0.481 1.412 0.55 2.969 0.075 1.688 0.094 2.194 0.094 6.463s-0.019 4.781-0.094 6.463c-0.069 1.563-0.331 2.406-0.55 2.969-0.288 0.744-0.637 1.281-1.194 1.837-0.563 0.563-1.094 0.906-1.837 1.2-0.563 0.219-1.413 0.481-2.969 0.55-1.688 0.075-2.194 0.094-6.463 0.094s-4.781-0.019-6.463-0.094c-1.563-0.069-2.406-0.331-2.969-0.55-0.744-0.288-1.281-0.637-1.838-1.194-0.563-0.563-0.906-1.094-1.2-1.837-0.219-0.563-0.481-1.413-0.55-2.969-0.075-1.688-0.094-2.194-0.094-6.463s0.019-4.781 0.094-6.463c0.069-1.563 0.331-2.406 0.55-2.969 0.288-0.744 0.638-1.281 1.194-1.838 0.563-0.563 1.094-0.906 1.838-1.2 0.563-0.219 1.412-0.481 2.969-0.55 1.681-0.075 2.188-0.094 6.463-0.094zM16 0c-4.344 0-4.887 0.019-6.594 0.094-1.7 0.075-2.869 0.35-3.881 0.744-1.056 0.412-1.95 0.956-2.837 1.85-0.894 0.888-1.438 1.781-1.85 2.831-0.394 1.019-0.669 2.181-0.744 3.881-0.075 1.713-0.094 2.256-0.094 6.6s0.019 4.887 0.094 6.594c0.075 1.7 0.35 2.869 0.744 3.881 0.413 1.056 0.956 1.95 1.85 2.837 0.887 0.887 1.781 1.438 2.831 1.844 1.019 0.394 2.181 0.669 3.881 0.744 1.706 0.075 2.25 0.094 6.594 0.094s4.888-0.019 6.594-0.094c1.7-0.075 2.869-0.35 3.881-0.744 1.050-0.406 1.944-0.956 2.831-1.844s1.438-1.781 1.844-2.831c0.394-1.019 0.669-2.181 0.744-3.881 0.075-1.706 0.094-2.25 0.094-6.594s-0.019-4.887-0.094-6.594c-0.075-1.7-0.35-2.869-0.744-3.881-0.394-1.063-0.938-1.956-1.831-2.844-0.887-0.887-1.781-1.438-2.831-1.844-1.019-0.394-2.181-0.669-3.881-0.744-1.712-0.081-2.256-0.1-6.6-0.1v0z"></path>
<path d="M16 7.781c-4.537 0-8.219 3.681-8.219 8.219s3.681 8.219 8.219 8.219 8.219-3.681 8.219-8.219c0-4.537-3.681-8.219-8.219-8.219zM16 21.331c-2.944 0-5.331-2.387-5.331-5.331s2.387-5.331 5.331-5.331c2.944 0 5.331 2.387 5.331 5.331s-2.387 5.331-5.331 5.331z"></path>
<path d="M26.462 7.456c0 1.060-0.859 1.919-1.919 1.919s-1.919-0.859-1.919-1.919c0-1.060 0.859-1.919 1.919-1.919s1.919 0.859 1.919 1.919z"></path>
</symbol>
</defs>
</svg>
